<svg xmlns="http://www.w3.org/2000/svg" xmlns:xlink="http://www.w3.org/1999/xlink" width="500" zoomAndPan="magnify" viewBox="0 0 375 374.999991" height="500" preserveAspectRatio="xMidYMid meet" version="1.0"><defs><g/></defs><g fill="#5ab8c2" fill-opacity="1"><g transform="translate(7.981982, 302.61707)"><g><path d="M 87.59375 2.625 C 79.613281 2.625 74.015625 0.972656 70.796875 -2.328125 C 67.585938 -5.640625 65.984375 -9.828125 65.984375 -14.890625 L 65.984375 -20.140625 C 65.984375 -25.203125 67.585938 -29.390625 70.796875 -32.703125 C 74.015625 -36.015625 79.613281 -37.671875 87.59375 -37.671875 C 95.582031 -37.671875 101.179688 -36.015625 104.390625 -32.703125 C 107.597656 -29.390625 109.203125 -25.203125 109.203125 -20.140625 L 109.203125 -14.890625 C 109.203125 -9.828125 107.597656 -5.640625 104.390625 -2.328125 C 101.179688 0.972656 95.582031 2.625 87.59375 2.625 Z M 87.59375 2.625 "/></g></g></g><g fill="#5ab8c2" fill-opacity="1"><g transform="translate(183.180156, 302.61707)"><g><path d="M 26.28125 40.296875 L 127.890625 -221.921875 L 148.921875 -221.921875 L 47.296875 40.296875 Z M 26.28125 40.296875 "/></g></g></g><g fill="#0f0c06" fill-opacity="1"><g transform="translate(16.669896, 297.42699)"><g><path d="M 87.59375 2.625 C 79.613281 2.625 74.015625 0.972656 70.796875 -2.328125 C 67.585938 -5.640625 65.984375 -9.828125 65.984375 -14.890625 L 65.984375 -20.140625 C 65.984375 -25.203125 67.585938 -29.390625 70.796875 -32.703125 C 74.015625 -36.015625 79.613281 -37.671875 87.59375 -37.671875 C 95.570312 -37.671875 101.164062 -36.015625 104.375 -32.703125 C 107.59375 -29.390625 109.203125 -25.203125 109.203125 -20.140625 L 109.203125 -14.890625 C 109.203125 -9.828125 107.59375 -5.640625 104.375 -2.328125 C 101.164062 0.972656 95.570312 2.625 87.59375 2.625 Z M 87.59375 2.625 "/></g></g></g><g fill="#0f0c06" fill-opacity="1"><g transform="translate(191.852738, 297.42699)"><g><path d="M 26.28125 40.296875 L 127.890625 -221.90625 L 148.90625 -221.90625 L 47.296875 40.296875 Z M 26.28125 40.296875 "/></g></g></g></svg>