<svg xmlns="http://www.w3.org/2000/svg" xmlns:xlink="http://www.w3.org/1999/xlink" width="500" zoomAndPan="magnify" viewBox="0 0 375 374.999991" height="500" preserveAspectRatio="xMidYMid meet" version="1.0"><defs><g/></defs><g fill="#5ab8c2" fill-opacity="1"><g transform="translate(0.0000045, 265.55887)"><g><path d="M 61.640625 1.84375 C 56.023438 1.84375 52.085938 0.679688 49.828125 -1.640625 C 47.566406 -3.972656 46.4375 -6.921875 46.4375 -10.484375 L 46.4375 -14.171875 C 46.4375 -17.734375 47.566406 -20.675781 49.828125 -23 C 52.085938 -25.332031 56.023438 -26.5 61.640625 -26.5 C 67.253906 -26.5 71.191406 -25.332031 73.453125 -23 C 75.710938 -20.675781 76.84375 -17.734375 76.84375 -14.171875 L 76.84375 -10.484375 C 76.84375 -6.921875 75.710938 -3.972656 73.453125 -1.640625 C 71.191406 0.679688 67.253906 1.84375 61.640625 1.84375 Z M 61.640625 1.84375 "/></g></g></g><g fill="#5ab8c2" fill-opacity="1"><g transform="translate(123.270409, 265.55887)"><g><path d="M 18.484375 28.359375 L 89.984375 -156.140625 L 104.78125 -156.140625 L 33.28125 28.359375 Z M 18.484375 28.359375 "/></g></g></g><g fill="#5ab8c2" fill-opacity="1"><g transform="translate(246.540813, 265.55887)"><g><path d="M 16.4375 -13.96875 L 53.421875 -13.96875 L 53.421875 -138.0625 L 16.4375 -138.0625 L 16.4375 -152.03125 L 69.859375 -152.03125 L 69.859375 -13.96875 L 106.828125 -13.96875 L 106.828125 0 L 16.4375 0 Z M 16.4375 -13.96875 "/></g></g></g><g fill="#0f0c06" fill-opacity="1"><g transform="translate(5.140291, 258.509406)"><g><path d="M 61.640625 1.84375 C 56.023438 1.84375 52.085938 0.679688 49.828125 -1.640625 C 47.566406 -3.972656 46.4375 -6.921875 46.4375 -10.484375 L 46.4375 -14.171875 C 46.4375 -17.734375 47.566406 -20.675781 49.828125 -23 C 52.085938 -25.332031 56.023438 -26.5 61.640625 -26.5 C 67.253906 -26.5 71.191406 -25.332031 73.453125 -23 C 75.710938 -20.675781 76.84375 -17.734375 76.84375 -14.171875 L 76.84375 -10.484375 C 76.84375 -6.921875 75.710938 -3.972656 73.453125 -1.640625 C 71.191406 0.679688 67.253906 1.84375 61.640625 1.84375 Z M 61.640625 1.84375 "/></g></g></g><g fill="#0f0c06" fill-opacity="1"><g transform="translate(128.410695, 258.509406)"><g><path d="M 18.484375 28.359375 L 89.984375 -156.140625 L 104.78125 -156.140625 L 33.28125 28.359375 Z M 18.484375 28.359375 "/></g></g></g><g fill="#0f0c06" fill-opacity="1"><g transform="translate(251.681099, 258.509406)"><g><path d="M 16.4375 -13.96875 L 53.421875 -13.96875 L 53.421875 -138.0625 L 16.4375 -138.0625 L 16.4375 -152.03125 L 69.859375 -152.03125 L 69.859375 -13.96875 L 106.828125 -13.96875 L 106.828125 0 L 16.4375 0 Z M 16.4375 -13.96875 "/></g></g></g></svg>